# xmcd
#
# Track frame offsets: 
#        150
#        21904
#        46787
#        72357
#        92622
#        111541
#        128389
#        148931
#        167989
#        187637
#        204465
#        220786
#        232415
#        244420
#        266624
#        294931
#        308429
#        321534
#
# Disc length: 4586 seconds
#
# Revision: 0
# Processed by: cddbd v1.5.2PL0 Copyright (c) Steve Scherf et al.
# Submitted via: ExactAudioCopy v1.0b3
#
DISCID=0d11e812
DTITLE=Various Artist - Mystic Soul From New York City
DYEAR=1900
DGENRE=Soul
TTITLE0=Freddie Lowe - Decisions
TTITLE1=Tgb Band - What Goes Around Comes Around
TTITLE2=Tgb Band - Do The Right Thing
TTITLE3=New York City - Don't Rush Me Now
TTITLE4=The Gentlemen From New York City - You're My Lady
TTITLE5=Glass Tear - Mother For My Children
TTITLE6=Glass Tear - Love You For Ever
TTITLE7=The Mooniques - Please Let Me Stay Awhile
TTITLE8=Darlene Davis - I Found A Love (And You're The One)
TTITLE9=Donnie Scales - I'm Gonna Make It
TTITLE10=Donnie Scales - If I'm Your Man
TTITLE11=Sonny Smith - Lonely Lover
TTITLE12=Sonny Smith - Everything's Gonna Be Alright
TTITLE13=F/X - Gold Digger
TTITLE14=The Overweight Prince - I'm Coming Home
TTITLE15=Unique Blend - My Ship Won't Sail Without You
TTITLE16=Unique Blend - Waiting For You Baby
TTITLE17=Shock - Why Should I Forgive You
EXTD=
EXTT0=
EXTT1=
EXTT2=
EXTT3=
EXTT4=
EXTT5=
EXTT6=
EXTT7=
EXTT8=
EXTT9=
EXTT10=
EXTT11=
EXTT12=
EXTT13=
EXTT14=
EXTT15=
EXTT16=
EXTT17=
PLAYORDER=
